<svg width="29" height="23" viewBox="0 0 29 23" fill="none" xmlns="http://www.w3.org/2000/svg">
<path d="M28.0686 2.96549C27.0597 3.41258 25.9758 3.71466 24.8363 3.8512C26.012 3.1477 26.8916 2.04047 27.311 0.736117C26.2064 1.39223 24.9975 1.85406 23.7367 2.10153C22.889 1.19633 21.766 0.596345 20.5423 0.394732C19.3186 0.193119 18.0625 0.401157 16.9692 0.986548C15.8758 1.57194 15.0063 2.50193 14.4956 3.63213C13.9849 4.76234 13.8617 6.02952 14.145 7.23695C11.9068 7.12457 9.71721 6.54282 7.71838 5.52946C5.71955 4.5161 3.95614 3.09377 2.54258 1.35478C2.05924 2.18853 1.78133 3.1552 1.78133 4.1847C1.78079 5.11149 2.00902 6.02408 2.44576 6.8415C2.88251 7.65893 3.51427 8.35591 4.28499 8.87062C3.39116 8.84218 2.51705 8.60066 1.73541 8.16616V8.23866C1.73532 9.53851 2.18495 10.7984 3.00801 11.8044C3.83106 12.8105 4.97685 13.5009 6.25095 13.7583C5.42177 13.9827 4.55244 14.0158 3.70862 13.855C4.06809 14.9734 4.76832 15.9515 5.71127 16.6522C6.65422 17.3529 7.79268 17.7412 8.96729 17.7627C6.97333 19.328 4.51082 20.1771 1.97587 20.1734C1.52683 20.1735 1.07817 20.1473 0.632202 20.0948C3.20532 21.7492 6.20061 22.6273 9.2597 22.6239C19.6151 22.6239 25.2762 14.0471 25.2762 6.60862C25.2762 6.36695 25.2701 6.12287 25.2592 5.8812C26.3604 5.08488 27.3109 4.09878 28.0662 2.96912L28.0686 2.96549Z" fill="black"/>
</svg>
