<svg width="26" height="19" viewBox="0 0 26 19" fill="none" xmlns="http://www.w3.org/2000/svg">
<path d="M25.1579 3.38564C25.0134 2.84767 24.7302 2.35706 24.3366 1.96293C23.943 1.5688 23.4527 1.28497 22.9149 1.13984C20.9353 0.607422 13 0.607422 13 0.607422C13 0.607422 5.06462 0.607422 3.08503 1.13701C2.547 1.28167 2.0565 1.56534 1.6628 1.95955C1.26909 2.35375 0.986038 2.8446 0.842059 3.38281C0.312469 5.36523 0.312469 9.5 0.312469 9.5C0.312469 9.5 0.312469 13.6348 0.842059 15.6144C1.13376 16.7075 1.9947 17.5685 3.08503 17.8602C5.06462 18.3926 13 18.3926 13 18.3926C13 18.3926 20.9353 18.3926 22.9149 17.8602C24.0081 17.5685 24.8662 16.7075 25.1579 15.6144C25.6875 13.6348 25.6875 9.5 25.6875 9.5C25.6875 9.5 25.6875 5.36523 25.1579 3.38564ZM10.4795 13.2949V5.70508L17.0498 9.47168L10.4795 13.2949Z" fill="black"/>
</svg>
